<svg id="Component_7_36" data-name="Component 7 – 36" xmlns="http://www.w3.org/2000/svg" width="182.474" height="80.465" viewBox="0 0 182.474 80.465">
  <g id="Group_2" data-name="Group 2">
    <g id="Group_3" data-name="Group 3">
      <path id="Path_219" data-name="Path 219" d="M92.042,45.457c.246-.753.393-1.294.607-2.113.212-.852.539-2.2.539-2.2s.345,1.491.46,2.016c.245,1.1.623,2.294.623,2.294Zm-.016-6.817L88.289,50.063h2.392l.8-2.7h3.342l.8,2.7h2.458L94.5,38.64Z" transform="translate(8.644 3.783)" fill="#00569c"/>
      <path id="Path_220" data-name="Path 220" d="M103.22,43.454a4.434,4.434,0,0,0-2.064-.606c-.639,0-1.066.328-1.066.819,0,.426.279.657,1.05.853l1.016.262a2.6,2.6,0,0,1,1.671.95,2.218,2.218,0,0,1,.459,1.426c0,1.737-1.44,2.916-3.588,2.916a7.462,7.462,0,0,1-3.393-.967l.787-1.6a6.135,6.135,0,0,0,2.785.949,1.026,1.026,0,0,0,1.114-.949c0-.575-.411-.87-1.294-1.034l-.984-.18a2.958,2.958,0,0,1-1.54-.852,2.537,2.537,0,0,1-.475-1.507c0-1.639,1.3-2.737,3.245-2.737a6.3,6.3,0,0,1,3,.787Z" transform="translate(9.527 4.033)" fill="#00569c"/>
      <path id="Path_221" data-name="Path 221" d="M110.265,43.454a4.437,4.437,0,0,0-2.064-.606c-.64,0-1.066.328-1.066.819,0,.426.279.657,1.049.853l1.017.262a2.6,2.6,0,0,1,1.671.95,2.218,2.218,0,0,1,.459,1.426c0,1.737-1.442,2.916-3.588,2.916a7.458,7.458,0,0,1-3.393-.967l.786-1.6a6.144,6.144,0,0,0,2.786.949,1.027,1.027,0,0,0,1.114-.949c0-.575-.411-.87-1.294-1.034l-.984-.18a2.958,2.958,0,0,1-1.54-.852,2.537,2.537,0,0,1-.475-1.507c0-1.639,1.294-2.737,3.244-2.737a6.309,6.309,0,0,1,3,.787Z" transform="translate(10.216 4.033)" fill="#00569c"/>
      <path id="Path_222" data-name="Path 222" d="M115.464,42.876a1.176,1.176,0,0,1,.951.441,3.91,3.91,0,0,1,.442,2.246c0,1.981-.41,2.834-1.36,2.834a1.214,1.214,0,0,1-1.114-.688A5.928,5.928,0,0,1,114.1,45.6a6,6,0,0,1,.229-1.869,1.184,1.184,0,0,1,1.131-.851m-.033-1.624c-2.262,0-3.769,1.753-3.769,4.392s1.492,4.343,3.769,4.343a3.428,3.428,0,0,0,2.77-1.164,4.558,4.558,0,0,0,1.049-3.245,4.363,4.363,0,0,0-.967-3.064,3.515,3.515,0,0,0-2.851-1.261" transform="translate(10.932 4.039)" fill="#00569c"/>
      <path id="Path_223" data-name="Path 223" d="M124.766,43.586a2.113,2.113,0,0,0-1.327-.655c-.984,0-1.425.852-1.425,2.819a3.579,3.579,0,0,0,.425,2.112,1.27,1.27,0,0,0,.985.475,2.249,2.249,0,0,0,1.506-.686l.132-.116,1,1.328a3.508,3.508,0,0,1-.77.623,3.923,3.923,0,0,1-2.049.525c-2.311,0-3.654-1.606-3.654-4.327a4.46,4.46,0,0,1,1.72-3.883,3.968,3.968,0,0,1,2.082-.624,3.593,3.593,0,0,1,1.622.377,3.717,3.717,0,0,1,.819.591Z" transform="translate(11.708 4.031)" fill="#00569c"/>
      <path id="Path_224" data-name="Path 224" d="M128.88,41.532V50.12h-2.2V41.875Zm.262-2.113a1.352,1.352,0,1,1-2.7,0,1.371,1.371,0,0,1,1.377-1.36,1.34,1.34,0,0,1,1.327,1.36" transform="translate(12.379 3.726)" fill="#00569c"/>
      <path id="Path_225" data-name="Path 225" d="M134.749,46.136l-.033,1.8a1.593,1.593,0,0,1-1.146.573,1,1,0,0,1-.967-1.1c0-1,.524-1.279,2.048-1.279Zm-4.309-3.719.934,1.573a4.61,4.61,0,0,1,2.424-.951c.8,0,.984.311.984,1.245v.345c-.18-.016-.327-.016-.491-.016-2.672,0-4.033.918-4.033,2.884,0,1.671,1.017,2.622,2.885,2.622a2.891,2.891,0,0,0,1.686-.459,4.077,4.077,0,0,0,.508-.442,2.34,2.34,0,0,0,1.18,1.016l1.164-1.344a1.71,1.71,0,0,1-.787-1.719v-.148l.049-2.819A3.884,3.884,0,0,0,136.8,42.7c-.327-.934-1.294-1.459-2.7-1.459a5.685,5.685,0,0,0-2.294.492,8.036,8.036,0,0,0-1.36.688" transform="translate(12.753 4.037)" fill="#00569c"/>
      <path id="Path_226" data-name="Path 226" d="M142,43.135h-1.41v4.213c0,1.065.2,1.343.951,1.343a2.875,2.875,0,0,0,.786-.162l.279,1.31a4.622,4.622,0,0,1-1.786.378,2.266,2.266,0,0,1-2.261-1.23,3.057,3.057,0,0,1-.148-1.293V43.135h-.836V41.627h.836a14.442,14.442,0,0,1,.082-1.982l2.229-.557a24.868,24.868,0,0,0-.132,2.538h1.966Z" transform="translate(13.469 3.827)" fill="#00569c"/>
      <path id="Path_227" data-name="Path 227" d="M145.326,44.693v-.032c0-1.163.475-1.818,1.311-1.818a1.064,1.064,0,0,1,.967.492,2.171,2.171,0,0,1,.261,1.262v.1Zm3.867,2.869a3.284,3.284,0,0,1-2.13.837c-1.131,0-1.77-.738-1.77-2.032V46.3h4.851v-.508a4.924,4.924,0,0,0-1.114-3.669,3.426,3.426,0,0,0-2.425-.885,3.3,3.3,0,0,0-2.638,1.13,4.59,4.59,0,0,0-1.048,3.327c0,2.637,1.556,4.342,3.966,4.342a4.812,4.812,0,0,0,3.162-1.163Z" transform="translate(13.993 4.037)" fill="#00569c"/>
      <path id="Path_228" data-name="Path 228" d="M155.575,43.946v4a1.575,1.575,0,0,1-1.083.539c-1.146,0-1.523-.59-1.523-2.391,0-1.869.425-2.689,1.409-2.689a1.833,1.833,0,0,1,1.2.541m2.146-5.6L155.542,38v2.883a10.162,10.162,0,0,0,.066,1.246,2.261,2.261,0,0,0-1.492-.475c-2.13,0-3.589,1.8-3.589,4.423,0,2.606,1.344,4.262,3.475,4.262a2.819,2.819,0,0,0,1.933-.7,1.508,1.508,0,0,0,.132.492h1.965a8.188,8.188,0,0,1-.311-3.065Z" transform="translate(14.738 3.72)" fill="#00569c"/>
      <path id="Path_229" data-name="Path 229" d="M96.181,54.473l-.294,1.869h-3.9v2.639h3.261v1.868H92.019V63.9h4.309v1.965H89.693V54.473Z" transform="translate(8.781 5.333)" fill="#00569c"/>
      <path id="Path_230" data-name="Path 230" d="M99.165,57.011a2.148,2.148,0,0,1,.311,1.049,9.826,9.826,0,0,1,.967-.623,3.438,3.438,0,0,1,1.507-.361,2.088,2.088,0,0,1,2.016,1.214,3.366,3.366,0,0,1,.164,1.2v6.127h-2.163V60.157c0-.949-.164-1.23-.738-1.23a2.568,2.568,0,0,0-1.524.754v5.932h-2.2V59.534a6.048,6.048,0,0,0-.294-1.965Z" transform="translate(9.518 5.582)" fill="#00569c"/>
      <path id="Path_231" data-name="Path 231" d="M108.714,58.705a1.179,1.179,0,0,1,1.327,1.246c0,.77-.474,1.2-1.344,1.2-.77,0-1.294-.345-1.294-1.2a1.166,1.166,0,0,1,1.311-1.246m4.294-1.933a2.638,2.638,0,0,1-1.738.721,4.329,4.329,0,0,1-1.032-.181,6.049,6.049,0,0,0-1.507-.212c-2.146,0-3.54,1.114-3.54,2.835a2.175,2.175,0,0,0,1.8,2.328c-1.377.36-1.54.867-1.54,1.409a1.066,1.066,0,0,0,.639,1.1,5.946,5.946,0,0,0,2.016.262l.934.015c.868.018,1.54.247,1.54,1a1.021,1.021,0,0,1-.541.852,2.654,2.654,0,0,1-1.376.278c-1.017,0-1.574-.361-1.574-1.033a1.184,1.184,0,0,1,.1-.539h-2.032a1.687,1.687,0,0,0-.2.852,1.963,1.963,0,0,0,.687,1.49,4.7,4.7,0,0,0,3.178.9,4.519,4.519,0,0,0,3.31-1.084,2.379,2.379,0,0,0,.673-1.737,2.288,2.288,0,0,0-.721-1.785,3.413,3.413,0,0,0-2.539-.754l-1.18-.016c-.229,0-.36-.082-.36-.2,0-.228.312-.425.868-.687a2.663,2.663,0,0,0,.327.016c1.786,0,3.1-1.049,3.1-2.49a2.028,2.028,0,0,0-.492-1.378,4.418,4.418,0,0,0,.574.051,2.091,2.091,0,0,0,1.54-.623Z" transform="translate(10.276 5.558)" fill="#00569c"/>
      <path id="Path_232" data-name="Path 232" d="M116.03,57.336v8.587h-2.2V57.679Zm.261-2.113a1.352,1.352,0,1,1-2.7,0,1.371,1.371,0,0,1,1.377-1.36,1.34,1.34,0,0,1,1.327,1.36" transform="translate(11.121 5.273)" fill="#00569c"/>
      <path id="Path_233" data-name="Path 233" d="M119.583,57.011a2.15,2.15,0,0,1,.312,1.049,9.571,9.571,0,0,1,.967-.623,3.441,3.441,0,0,1,1.506-.361,2.09,2.09,0,0,1,2.017,1.214,3.391,3.391,0,0,1,.164,1.2v6.127h-2.164V60.157c0-.949-.164-1.23-.738-1.23a2.574,2.574,0,0,0-1.524.754v5.932h-2.2V59.534a6.048,6.048,0,0,0-.294-1.965Z" transform="translate(11.517 5.582)" fill="#00569c"/>
      <path id="Path_234" data-name="Path 234" d="M127.877,60.5v-.033c0-1.164.475-1.819,1.311-1.819a1.063,1.063,0,0,1,.967.492,2.164,2.164,0,0,1,.262,1.262v.1Zm3.868,2.867a3.273,3.273,0,0,1-2.131.837c-1.131,0-1.77-.738-1.77-2.032V62.1h4.851V61.6a4.926,4.926,0,0,0-1.113-3.669,3.429,3.429,0,0,0-2.426-.886,3.3,3.3,0,0,0-2.638,1.131,4.6,4.6,0,0,0-1.048,3.327c0,2.638,1.558,4.343,3.966,4.343a4.82,4.82,0,0,0,3.163-1.164Z" transform="translate(12.284 5.585)" fill="#00569c"/>
      <path id="Path_235" data-name="Path 235" d="M140.21,64.678a4.829,4.829,0,0,1-3.164,1.164c-2.409,0-3.965-1.705-3.965-4.343a4.59,4.59,0,0,1,1.049-3.327,3.3,3.3,0,0,1,2.638-1.132,3.433,3.433,0,0,1,2.425.886,4.929,4.929,0,0,1,1.114,3.67V62.1h-4.851v.066c0,1.294.638,2.032,1.77,2.032a3.272,3.272,0,0,0,2.13-.837Zm-2.18-4.179v-.1a2.153,2.153,0,0,0-.262-1.262,1.06,1.06,0,0,0-.966-.492c-.837,0-1.311.655-1.311,1.819V60.5Z" transform="translate(13.029 5.585)" fill="#00569c"/>
      <path id="Path_236" data-name="Path 236" d="M142.883,57.025a2.7,2.7,0,0,1,.344,1.2,3.608,3.608,0,0,1,1.246-1.065,1.939,1.939,0,0,1,.721-.132,1.7,1.7,0,0,1,.819.18l-.607,1.935a1.24,1.24,0,0,0-.639-.164,1.751,1.751,0,0,0-1.343.7v5.932h-2.2v-5.6a7.613,7.613,0,0,0-.312-2.458Z" transform="translate(13.797 5.583)" fill="#00569c"/>
      <path id="Path_237" data-name="Path 237" d="M148.687,57.336v8.587h-2.2V57.679Zm.262-2.113a1.352,1.352,0,1,1-2.7,0,1.371,1.371,0,0,1,1.377-1.36,1.34,1.34,0,0,1,1.327,1.36" transform="translate(14.318 5.273)" fill="#00569c"/>
      <path id="Path_238" data-name="Path 238" d="M152.24,57.011a2.146,2.146,0,0,1,.31,1.049,9.822,9.822,0,0,1,.967-.623,3.447,3.447,0,0,1,1.509-.361,2.085,2.085,0,0,1,2.015,1.214,3.366,3.366,0,0,1,.164,1.2v6.127h-2.162V60.157c0-.949-.165-1.23-.738-1.23a2.566,2.566,0,0,0-1.524.754v5.932h-2.2V59.534a6.078,6.078,0,0,0-.293-1.965Z" transform="translate(14.714 5.582)" fill="#00569c"/>
      <path id="Path_239" data-name="Path 239" d="M161.789,58.705a1.178,1.178,0,0,1,1.326,1.246c0,.77-.475,1.2-1.343,1.2-.771,0-1.294-.345-1.294-1.2a1.166,1.166,0,0,1,1.311-1.246m4.294-1.933a2.642,2.642,0,0,1-1.738.721,4.321,4.321,0,0,1-1.032-.181,6.056,6.056,0,0,0-1.507-.212c-2.149,0-3.54,1.114-3.54,2.835a2.175,2.175,0,0,0,1.8,2.328c-1.378.36-1.54.867-1.54,1.409a1.065,1.065,0,0,0,.638,1.1,5.959,5.959,0,0,0,2.017.262l.933.015c.87.018,1.54.247,1.54,1a1.021,1.021,0,0,1-.541.852,2.652,2.652,0,0,1-1.376.278c-1.017,0-1.573-.361-1.573-1.033a1.184,1.184,0,0,1,.1-.539h-2.032a1.682,1.682,0,0,0-.2.852,1.968,1.968,0,0,0,.688,1.49,4.7,4.7,0,0,0,3.178.9,4.521,4.521,0,0,0,3.311-1.084,2.377,2.377,0,0,0,.671-1.737,2.287,2.287,0,0,0-.719-1.785,3.414,3.414,0,0,0-2.541-.754l-1.18-.016c-.228,0-.36-.082-.36-.2,0-.228.312-.425.87-.687a2.645,2.645,0,0,0,.327.016c1.786,0,3.1-1.049,3.1-2.49a2.024,2.024,0,0,0-.493-1.378,4.455,4.455,0,0,0,.574.051A2.093,2.093,0,0,0,167,58.166Z" transform="translate(15.473 5.558)" fill="#00569c"/>
      <path id="Path_240" data-name="Path 240" d="M95.045,12.685C85.323-3.51,56.9-4.3,31.557,10.912S-6.449,51.587,3.276,67.782s38.146,16.987,63.488,1.772,38-40.675,28.281-56.868M84.2,40.63H55.879V55.9l5.449-8.071H79.4L74.024,55.9H55.879v7.065H69.314l-5.5,8.254H47.329V55.9H42.355l4.974-7.22V45.518L30.177,71.248h-9.57l25.653-38.7h9.62V40.63l5.428-8.078H89.549Z" transform="translate(0 0)" fill="#00569c"/>
    </g>
  </g>
</svg>
